<?xml version="1.0" encoding="utf-8"?>
<!-- Generator: Adobe Illustrator 25.4.1, SVG Export Plug-In . SVG Version: 6.00 Build 0)  -->
<svg version="1.1" id="Calque_1" xmlns="http://www.w3.org/2000/svg" xmlns:xlink="http://www.w3.org/1999/xlink" x="0px" y="0px"
	 viewBox="0 0 400 94" style="enable-background:new 0 0 400 94;" xml:space="preserve">
<style type="text/css">
	.st0{fill:#FFFFFF;}
</style>
<g>
	<g>
		<path class="st0" d="M55.3,47.8l-7.2-1.6c1.5-0.5,3-1,4.5-1.5c2.3-0.7,4-1.4,5.1-2c2.3-1.3,4.4-3.2,6.4-5.8c2-2.5,3-5.7,3-9.5
			c0-5.6-2.4-10.2-7.2-13.8C55,9.9,48.8,8.1,41.4,8.1H29H0.7v6.3c3.6,0,6,0.9,7.4,2.6c0.7,1.4,1.1,3.3,1.1,5.8v23.3v25.5
			c0,3.6-0.6,6.1-1.8,7.4c-1.2,1.4-3.4,2-6.6,2v6.3H29h11.9c9.1,0,16.1-1.8,21.1-5.4c5-3.6,7.5-8.6,7.5-15.2c0-4.3-1.3-8.2-4-11.7
			C62.9,51.5,59.5,49.1,55.3,47.8z M29,13.9h6.2c3.5,0,6.3,1.4,8.3,4.1c2.1,2.7,3.1,6.4,3.1,11c0,4.6-1,8.1-3.1,10.6
			c-2,2.5-4.9,3.7-8.5,3.7H29V13.9z M45.3,77.5c-2.1,2.7-4.9,4-8.4,4C31.6,81.5,29,79,29,74V49.7h5.9c2.9,0,5.4,0.8,7.6,2.5
			c2.2,1.6,3.8,3.6,4.6,5.7c0.9,2.2,1.3,5,1.3,8.5C48.4,71.1,47.4,74.8,45.3,77.5z"/>
	</g>
	<g>
		<path class="st0" d="M245.6,71.8V51.7v-4.4c0-5.2-1.4-9.3-4.1-12.2c-2.7-3-6.5-4.4-11.4-4.4c-4.2,0-8.2,1.3-12.1,3.8l-5.2,4V5.2
			h-4L198,8.9c-1.8,0.6-3.6,1.1-5.4,1.5c-1.7,0.4-3.7,0.8-5.8,1.3V17l5.8,2.6c1.2,0.5,1.7,1.4,1.7,2.7v29.3V71v4.7
			c-0.2,0.9-0.6,1.8-1.2,2.6c-0.6,0.9-1.3,1.5-2.1,2c-0.8,0.4-2.2,0.9-4.2,0.9l0,0.1l-0.7,0c-3.5,0-5.3-2.1-5.3-6.3V51.7V31.3h-4.1
			l-10.7,3.3l-11.3,2.9v5.4l5.9,2.5c0.7,0.3,1.2,0.7,1.4,1.1l0.3,1.6v3.6v22.1c-2.6,3-5.5,4.5-8.7,4.5c-3.7,0-5.6-2.3-5.6-6.8V51.7
			V31.3h-4.1l-10.5,3.3c-1.9,0.6-4.1,1.2-6.5,1.8c-1.7,0.4-3.3,0.7-4.9,1.1v5.4l5.9,2.5c0.7,0.3,1.2,0.7,1.4,1.1l0.3,1.7v3.6v21.4
			c0,0.1,0,0.2,0,0.4c-1.4,0.7-5.7,2.9-6.3,3.2c-1.2,0.5-2.1,0.5-2.1,0.5c-1.5,0-2.2-1.2-2.2-3.6V51.7v-5c0-5-1.7-8.9-5.2-11.6
			c-3.5-2.8-8.4-4.2-14.9-4.2c-3.9,0-7.4,0.4-10.4,1.1c-3.1,0.7-5.9,1.8-8.5,3.3c-5.1,3-7.6,6.7-7.6,11c0,2,0.7,4.7,2.1,8.2
			l15.5-5.2c-1.1-2.6-1.6-4.4-1.6-5.6c0-1.8,0.5-3.2,1.6-4.3c1.1-1.1,2.5-1.6,4.3-1.6c1.9,0,3.4,0.7,4.6,2.1
			c1.2,1.4,1.8,3.2,1.8,5.4v6.4c-1.2,0.7-2.1,1.2-2.6,1.5c-0.6,0.3-1.5,0.7-2.9,1.3L85,59c-5.5,2.5-9.1,4.8-11,6.9
			c-1.8,2.1-2.7,5.2-2.7,9.2c0,4,1.3,7.2,3.9,9.6c2.6,2.4,5.9,3.6,10,3.6c1.3,0,2.6-0.1,3.7-0.3c1.2-0.2,2.3-0.5,3.4-0.9
			c2.3-0.8,4.4-2,6.5-3.6l2.7-2.5c1.2,2.7,2.6,4.6,4.4,5.7c1.8,1.1,4,1.7,6.7,1.7c2.3,0,4.3-0.4,6.1-1.2c1.8-0.8,8.1-4.6,12.4-7.7
			c0.7,1.8,1.8,3.4,3.2,4.8c3,2.9,6.7,4.3,11.2,4.3c3.3,0,6.6-0.9,9.8-2.7c1.6-1,4-2.9,7.1-5.5v4.1v2.7l24.2,0v0h33.6V81
			c-2.9,0-4.9-0.7-6-2c-1.1-1.3-1.6-3.7-1.6-7.2V51.7v-5.5V45c1.1-1,1.9-1.6,2.5-2c0.6-0.4,1.2-0.8,1.9-1.2c1.3-0.7,2.6-1,3.9-1
			c4,0,6,2.4,6,7.2v3.6v20.1v3.3v3.1v2V81v6.3h26V81c-2.8,0-4.8-0.7-5.9-2.1C246.2,77.4,245.6,75,245.6,71.8z M97.8,77.4
			c-1.1,0.4-2,0.7-2.9,0.7c-4,0-6-2.5-6-7.4c0-1.8,0.4-3.3,1.3-4.6c0.8-1.2,2.4-2.4,4.6-3.6l3.5-2l3-2v16.5L97.8,77.4z"/>
	</g>
	<g>
		<path class="st0" d="M296,70.3c-2.6,2.3-4.9,3.9-6.9,4.7c-1.2,0.4-2,0.6-2.6,0.7c-0.6,0.1-1.5,0.2-2.9,0.2c-3.5,0-6.5-0.9-9.1-2.7
			c-1.1-0.7-2.1-1.6-3-2.7c-3.2-3.6-4.8-8.4-4.8-14.3h7.8h25.6c-0.6-4.8-1.3-8.5-2.1-10.9c-0.8-2.4-2.9-5.4-6.3-9.1
			c-3.3-3.6-8.5-5.4-15.6-5.4c-0.5,0-1,0-1.5,0c-7,0.4-12.8,3.2-17.3,8.4c-4.9,5.6-7.3,12.7-7.3,21.3c0,8.2,2.4,14.9,7.1,20.1
			c4.6,5,10.4,7.6,17.5,7.8c0.3,0,0.6,0,0.9,0c4,0,7.8-0.8,11.4-2.3c3.6-1.5,6.6-3.6,9.1-6.3l4.4-5.4L296,70.3z M268.5,40.6
			c1.4-2.1,3.4-3.2,6-3.2c2.4,0,4.3,1.1,5.7,3.2c1.4,2.2,2,5.3,2,9.5h-15.8C266.4,45.9,267.1,42.8,268.5,40.6z"/>
	</g>
	<g>
		<path class="st0" d="M393.4,79c-1.1-1.4-1.6-3.8-1.6-7.1V51.7v-4.8c0-5.1-1.4-9-4.2-11.9c-2.8-2.9-6.6-4.3-11.3-4.3
			c-3.7,0-7.4,0.9-11.1,2.7l-3.3,2.2l-4.3,3.4c-1.4-2.2-2.6-3.8-3.6-4.7c-0.9-1-2.3-1.9-4.2-2.6c-1.9-0.7-4-1-6.3-1
			c-3.1,0-5.8,0.6-8.1,1.7c-2.3,1.1-3.9,2-4.8,2.7l-4.4,3.1v-7l-4,0.2l-10.6,3.2l-11.5,3v5.4l5.9,2.5c0.7,0.3,1.2,0.7,1.4,1.1
			l0.3,1.6v3.6V71v4.6c-0.2,0.9-0.6,1.7-1.1,2.6c-0.5,0.8-1.3,1.5-2.3,2c-1,0.5-2.4,0.8-4.3,0.8v6.3h33.5V81c-2.6,0-4.5-0.7-5.7-2.1
			c-1.1-1.5-1.6-3.9-1.6-7.1V51.7v-4v-3.1c3-2.6,5.8-3.8,8.3-3.8c3.9,0,5.8,2.4,5.8,7.2v3.7v20.1v3.3v3.1v2V81v6.3h25.9V81
			c-2.8,0-4.7-0.7-5.8-2c-1.1-1.3-1.6-3.7-1.6-7.2V51.7v-7c2.8-2.7,5.6-4.1,8.6-4.1c3.8,0,5.7,2.4,5.7,7.1v3.9v20.1v3.3v2.3v2.7V81
			v6.3h25.9V81C396.5,81,394.5,80.3,393.4,79z"/>
	</g>
</g>
</svg>
