<svg width="534" height="225" viewBox="0 0 534 225" fill="none" xmlns="http://www.w3.org/2000/svg">
<path d="M185.788 125.752H169.805L167.16 133.984H158.708L173.139 90.7188H182.511L196.943 133.984H188.433L185.788 125.752ZM183.604 118.82L177.797 100.746L171.989 118.82H183.604Z" fill="#101012"/>
<path d="M230.107 99.6953V133.986H222V129.654C220.965 131.14 219.605 132.315 217.918 133.182C216.27 134.007 214.468 134.42 212.514 134.42C210.022 134.42 207.818 133.862 205.902 132.748C203.985 131.593 202.471 129.922 201.359 127.734C200.286 125.506 199.75 122.865 199.75 119.812V99.6953H207.799V118.574C207.799 121.298 208.431 123.402 209.696 124.888C210.961 126.332 212.686 127.054 214.871 127.054C217.094 127.054 218.838 126.332 220.103 124.888C221.368 123.402 222 121.298 222 118.574V99.6953H230.107Z" fill="#101012"/>
<path d="M245.121 106.813V123.402C245.121 124.557 245.37 125.403 245.869 125.939C246.405 126.434 247.287 126.682 248.513 126.682H252.251V133.985H247.191C240.407 133.985 237.014 130.437 237.014 123.339V106.813H233.22V99.6948H237.014V91.2148H245.121V99.6948H252.251V106.813H245.121Z" fill="#101012"/>
<path d="M269.884 134.542C266.818 134.542 264.058 133.82 261.605 132.375C259.152 130.89 257.216 128.806 255.798 126.123C254.418 123.442 253.728 120.347 253.728 116.839C253.728 113.332 254.437 110.237 255.855 107.555C257.312 104.872 259.286 102.809 261.777 101.365C264.269 99.8794 267.048 99.1367 270.114 99.1367C273.181 99.1367 275.96 99.8794 278.451 101.365C280.943 102.809 282.897 104.872 284.316 107.555C285.772 110.237 286.5 113.332 286.5 116.839C286.5 120.347 285.753 123.442 284.258 126.123C282.802 128.806 280.808 130.89 278.279 132.375C275.787 133.82 272.989 134.542 269.884 134.542ZM269.884 126.99C271.341 126.99 272.702 126.619 273.966 125.876C275.27 125.092 276.305 123.937 277.071 122.41C277.838 120.883 278.221 119.027 278.221 116.839C278.221 113.579 277.416 111.083 275.806 109.35C274.235 107.575 272.299 106.688 269.999 106.688C267.699 106.688 265.764 107.575 264.192 109.35C262.659 111.083 261.892 113.579 261.892 116.839C261.892 120.099 262.64 122.616 264.135 124.391C265.668 126.123 267.584 126.99 269.884 126.99Z" fill="#101012"/>
<path d="M329.662 99.1992C333.572 99.1992 336.715 100.499 339.091 103.099C341.506 105.657 342.714 109.247 342.714 113.868V133.985H334.664V115.045C334.664 112.362 334.032 110.32 332.767 108.917C331.502 107.473 329.777 106.751 327.592 106.751C325.407 106.751 323.663 107.473 322.36 108.917C321.095 110.32 320.463 112.362 320.463 115.045V133.985H312.413V115.045C312.413 112.362 311.781 110.32 310.516 108.917C309.251 107.473 307.526 106.751 305.342 106.751C303.118 106.751 301.355 107.473 300.052 108.917C298.787 110.32 298.155 112.362 298.155 115.045V133.985H290.105V99.6943H298.155V103.841C299.189 102.397 300.512 101.262 302.122 100.437C303.77 99.6119 305.571 99.1992 307.526 99.1992C310.018 99.1992 312.241 99.7769 314.196 100.932C316.151 102.046 317.665 103.656 318.738 105.76C319.773 103.78 321.268 102.191 323.223 100.994C325.216 99.7975 327.362 99.1992 329.662 99.1992Z" fill="#101012"/>
<path d="M345.982 116.715C345.982 113.249 346.615 110.175 347.88 107.493C349.183 104.811 350.927 102.747 353.112 101.303C355.335 99.8588 357.807 99.1367 360.529 99.1367C362.905 99.1367 364.975 99.6525 366.738 100.684C368.54 101.716 369.977 103.016 371.05 104.584V99.6937H379.157V133.984H371.05V128.971C370.016 130.58 368.578 131.922 366.738 132.994C364.937 134.026 362.848 134.542 360.471 134.542C357.788 134.542 355.335 133.799 353.112 132.314C350.927 130.828 349.183 128.744 347.88 126.062C346.615 123.338 345.982 120.223 345.982 116.715ZM371.05 116.839C371.05 114.734 370.667 112.94 369.901 111.454C369.134 109.928 368.099 108.773 366.796 107.988C365.493 107.163 364.093 106.75 362.599 106.75C361.104 106.75 359.724 107.142 358.459 107.926C357.194 108.71 356.159 109.865 355.354 111.392C354.588 112.877 354.204 114.653 354.204 116.715C354.204 118.779 354.588 120.594 355.354 122.163C356.159 123.689 357.194 124.865 358.459 125.691C359.762 126.516 361.142 126.929 362.599 126.929C364.093 126.929 365.493 126.537 366.796 125.752C368.099 124.927 369.134 123.772 369.901 122.287C370.667 120.759 371.05 118.944 371.05 116.839Z" fill="#101012"/>
<path d="M394.091 106.813V123.402C394.091 124.557 394.34 125.403 394.838 125.939C395.375 126.434 396.257 126.682 397.483 126.682H401.22V133.985H396.161C389.376 133.985 385.984 130.437 385.984 123.339V106.813H382.189V99.6948H385.984V91.2148H394.091V99.6948H401.22V106.813H394.091Z" fill="#101012"/>
<path d="M408.792 95.6082C407.374 95.6082 406.186 95.1336 405.228 94.1846C404.308 93.1942 403.848 91.9769 403.848 90.5327C403.848 89.0884 404.308 87.8917 405.228 86.9426C406.186 85.9523 407.374 85.457 408.792 85.457C410.21 85.457 411.38 85.9523 412.299 86.9426C413.258 87.8917 413.737 89.0884 413.737 90.5327C413.737 91.9769 413.258 93.1942 412.299 94.1846C411.38 95.1336 410.21 95.6082 408.792 95.6082ZM412.759 99.6934V133.984H404.71V99.6934H412.759Z" fill="#101012"/>
<path d="M432.556 134.542C429.49 134.542 426.73 133.82 424.277 132.375C421.824 130.89 419.888 128.806 418.47 126.123C417.09 123.442 416.4 120.347 416.4 116.839C416.4 113.332 417.109 110.237 418.527 107.555C419.984 104.872 421.958 102.809 424.449 101.365C426.941 99.8794 429.72 99.1367 432.786 99.1367C435.853 99.1367 438.632 99.8794 441.123 101.365C443.615 102.809 445.57 104.872 446.988 107.555C448.444 110.237 449.173 113.332 449.173 116.839C449.173 120.347 448.425 123.442 446.93 126.123C445.474 128.806 443.481 130.89 440.951 132.375C438.459 133.82 435.661 134.542 432.556 134.542ZM432.556 126.99C434.013 126.99 435.374 126.619 436.639 125.876C437.942 125.092 438.977 123.937 439.743 122.41C440.51 120.883 440.893 119.027 440.893 116.839C440.893 113.579 440.088 111.083 438.478 109.35C436.907 107.575 434.971 106.688 432.671 106.688C430.372 106.688 428.436 107.575 426.864 109.35C425.331 111.083 424.564 113.579 424.564 116.839C424.564 120.099 425.312 122.616 426.807 124.391C428.34 126.123 430.257 126.99 432.556 126.99Z" fill="#101012"/>
<path d="M470.428 99.1992C474.223 99.1992 477.29 100.499 479.628 103.099C481.966 105.657 483.135 109.247 483.135 113.868V133.985H475.086V115.045C475.086 112.321 474.453 110.237 473.188 108.794C471.923 107.308 470.198 106.565 468.014 106.565C465.79 106.565 464.027 107.308 462.724 108.794C461.459 110.237 460.827 112.321 460.827 115.045V133.985H452.777V99.6943H460.827V103.965C461.9 102.48 463.261 101.324 464.909 100.499C466.595 99.6324 468.435 99.1992 470.428 99.1992Z" fill="#101012"/>
<path d="M92.751 98.7982V88.3728C80.9411 88.8103 71.4919 99.255 71.4919 112.075V113.735H50.8027V112.075C50.8027 86.9533 69.5135 66.5358 92.751 66.0929V54.8164L128.21 77.2222L92.751 98.7982Z" fill="#101012"/>
<path d="M110.928 112.074V113.734C110.928 126.555 101.48 136.999 89.6702 137.437V127.013L54.2119 148.588L89.6702 170.994V159.717C112.907 159.274 131.618 138.857 131.618 113.734V112.074H110.928Z" fill="#101012"/>
</svg>
