<svg width="678" height="248" viewBox="0 0 678 248" fill="none" xmlns="http://www.w3.org/2000/svg">
<path d="M206.275 169.788L212.76 168.04V93.4608L206.275 91.7128V89.9648H235.455C246.406 89.9648 254.44 91.8682 259.555 95.6749C264.743 99.4038 267.336 104.298 267.336 110.357C267.336 114.553 266.219 117.932 263.986 120.495C261.753 123.059 258.907 124.962 255.448 126.206C251.774 127.604 247.811 128.342 243.56 128.419V129.003C248.82 129.236 253.395 130.09 257.286 131.566C261.248 132.964 264.526 135.14 267.12 138.091C269.786 141.044 271.119 144.812 271.119 149.395C271.119 156.31 268.489 161.747 263.229 165.71C257.97 169.594 249.432 171.536 237.616 171.536H206.275V169.788ZM235.455 127.255C237.833 127.255 240.03 126.555 242.047 125.157C244.137 123.68 245.794 121.661 247.019 119.098C248.316 116.456 248.964 113.543 248.964 110.357C248.964 106.939 248.316 103.91 247.019 101.268C245.794 98.6269 244.137 96.5682 242.047 95.0922C240.03 93.6162 237.833 92.8781 235.455 92.8781H230.592V127.255H235.455ZM237.616 168.622C242.083 168.622 245.722 166.913 248.532 163.495C251.342 160.077 252.746 155.377 252.746 149.395C252.746 143.414 251.342 138.714 248.532 135.295C245.722 131.877 242.083 130.167 237.616 130.167H230.592V168.622H237.616Z" fill="#101012"/>
<path d="M273.246 169.788L279.731 168.04V93.4608L273.246 91.7128V89.9648H287.296C293.78 89.9648 297.022 93.4608 297.022 100.453V168.04L303.507 169.788V171.536H273.246V169.788Z" fill="#101012"/>
<path d="M333.21 173.284C324.276 173.284 317.251 170.566 312.136 165.127C307.092 159.612 304.571 152.037 304.571 142.404C304.571 132.771 307.092 125.235 312.136 119.797C317.251 114.282 324.276 111.523 333.21 111.523C342.144 111.523 349.132 114.282 354.176 119.797C359.291 125.235 361.849 132.771 361.849 142.404C361.849 152.037 359.291 159.612 354.176 165.127C349.132 170.566 342.144 173.284 333.21 173.284ZM333.21 170.954C336.092 170.954 338.505 168.778 340.451 164.428C342.468 160.078 343.477 152.736 343.477 142.404C343.477 132.072 342.468 124.73 340.451 120.379C338.505 116.029 336.092 113.854 333.21 113.854C330.328 113.854 327.878 116.029 325.861 120.379C323.915 124.73 322.943 132.072 322.943 142.404C322.943 152.736 323.915 160.078 325.861 164.428C327.878 168.778 330.328 170.954 333.21 170.954Z" fill="#101012"/>
<path d="M390.526 173.284C386.059 173.284 382.06 172.236 378.53 170.138C376.801 169.128 375.396 168.04 374.315 166.875C373.162 168.584 371.902 169.905 370.533 170.837C369.884 171.303 369.164 171.73 368.371 172.12H365.669V152.309H369.992C370.929 155.571 372.298 158.601 374.099 161.398C377.918 167.381 382.673 170.371 388.365 170.371C391.391 170.371 393.66 169.594 395.173 168.04C396.758 166.409 397.551 164.079 397.551 161.049C397.551 158.485 396.47 156.349 394.309 154.64C392.219 152.853 388.905 150.677 384.366 148.114C380.475 146.016 377.305 144.152 374.856 142.52C372.478 140.811 370.425 138.714 368.695 136.227C367.038 133.664 366.21 130.673 366.21 127.255C366.21 122.594 368.047 118.825 371.721 115.952C375.468 113 381.196 111.523 388.905 111.523C392.723 111.523 396.254 112.611 399.496 114.786C401.081 115.797 402.45 116.845 403.603 117.933C404.539 116.534 405.8 115.213 407.385 113.97C408.61 113.194 409.331 112.767 409.547 112.689H412.249V132.499H407.926C406.845 129.158 405.512 126.167 403.927 123.526C400.325 117.467 396.038 114.437 391.066 114.437C389.121 114.437 387.464 115.213 386.095 116.767C384.726 118.321 384.042 120.263 384.042 122.594C384.042 125.546 385.194 128.032 387.5 130.051C389.806 131.994 393.3 134.247 397.983 136.811C401.802 138.908 404.828 140.772 407.061 142.404C409.367 143.958 411.312 145.899 412.897 148.231C414.554 150.561 415.383 153.28 415.383 156.388C415.383 167.652 407.097 173.284 390.526 173.284Z" fill="#101012"/>
<path d="M443.486 173.284C439.019 173.284 435.02 172.236 431.49 170.138C429.76 169.128 428.356 168.04 427.275 166.875C426.122 168.584 424.861 169.905 423.492 170.837C422.844 171.303 422.123 171.73 421.331 172.12H418.629V152.309H422.952C423.889 155.571 425.257 158.601 427.059 161.398C430.877 167.381 435.632 170.371 441.324 170.371C444.35 170.371 446.62 169.594 448.133 168.04C449.718 166.409 450.51 164.079 450.51 161.049C450.51 158.485 449.43 156.349 447.268 154.64C445.179 152.853 441.865 150.677 437.326 148.114C433.435 146.016 430.265 144.152 427.815 142.52C425.438 140.811 423.384 138.714 421.655 136.227C419.998 133.664 419.169 130.673 419.169 127.255C419.169 122.594 421.007 118.825 424.681 115.952C428.428 113 434.155 111.523 441.865 111.523C445.683 111.523 449.213 112.611 452.456 114.786C454.041 115.797 455.41 116.845 456.562 117.933C457.499 116.534 458.76 115.213 460.345 113.97C461.57 113.194 462.29 112.767 462.506 112.689H465.208V132.499H460.885C459.805 129.158 458.472 126.167 456.887 123.526C453.284 117.467 448.997 114.437 444.026 114.437C442.081 114.437 440.424 115.213 439.055 116.767C437.686 118.321 437.001 120.263 437.001 122.594C437.001 125.546 438.154 128.032 440.46 130.051C442.765 131.994 446.26 134.247 450.943 136.811C454.761 138.908 457.787 140.772 460.021 142.404C462.326 143.958 464.272 145.899 465.857 148.231C467.514 150.561 468.342 153.28 468.342 156.388C468.342 167.652 460.057 173.284 443.486 173.284Z" fill="#101012"/>
<path d="M499.687 173.284C490.753 173.284 483.729 170.566 478.613 165.127C473.57 159.612 471.048 152.037 471.048 142.404C471.048 132.771 473.57 125.235 478.613 119.797C483.729 114.282 490.753 111.523 499.687 111.523C508.621 111.523 515.61 114.282 520.653 119.797C525.769 125.235 528.327 132.771 528.327 142.404C528.327 152.037 525.769 159.612 520.653 165.127C515.61 170.566 508.621 173.284 499.687 173.284ZM499.687 170.954C502.569 170.954 504.983 168.778 506.928 164.428C508.946 160.078 509.954 152.736 509.954 142.404C509.954 132.072 508.946 124.73 506.928 120.379C504.983 116.029 502.569 113.854 499.687 113.854C496.806 113.854 494.356 116.029 492.339 120.379C490.393 124.73 489.421 132.072 489.421 142.404C489.421 152.736 490.393 160.078 492.339 164.428C494.356 168.778 496.806 170.954 499.687 170.954Z" fill="#101012"/>
<path d="M531.607 169.788L538.091 168.04V116.767L531.607 115.019V113.271H541.333C545.584 113.271 548.934 114.747 551.384 117.7C552.321 118.864 553.113 120.302 553.762 122.011C554.842 119.836 555.995 118.088 557.22 116.767C560.462 113.271 564.173 111.523 568.351 111.523C572.53 111.523 576.205 112.534 579.375 114.553C582.545 116.495 584.994 119.176 586.724 122.594C587.804 120.34 588.957 118.515 590.182 117.116C593.496 113.388 597.207 111.523 601.313 111.523C605.132 111.523 608.554 112.377 611.58 114.086C614.678 115.797 617.056 118.127 618.713 121.079C620.442 124.031 621.307 127.255 621.307 130.751V168.04L627.791 169.788V171.536H613.742C607.257 171.536 604.015 168.04 604.015 161.049V130.751C604.015 125.701 603.295 121.933 601.854 119.448C600.413 116.883 598.792 115.601 596.991 115.601C594.901 115.601 592.776 117.155 590.614 120.263C589.75 121.739 588.993 123.293 588.345 124.924V168.04L594.829 169.788V171.536H564.569V169.788L571.053 168.04V130.751C571.053 125.701 570.333 121.933 568.892 119.448C567.451 116.883 565.83 115.601 564.028 115.601C561.939 115.601 559.814 117.155 557.652 120.263C556.788 121.739 556.031 123.293 555.383 124.924V168.04L561.867 169.788V171.536H531.607V169.788Z" fill="#101012"/>
<path fill-rule="evenodd" clip-rule="evenodd" d="M118.309 193.787C117.612 193.935 116.889 193.985 116.156 193.924C93.5183 192.072 72.0911 178.589 59.8828 155.789C47.6743 132.989 47.559 106.238 57.391 84.1721C58.8184 80.9686 61.9127 79.0423 65.1994 79.3112C73.6355 80.0014 81.9035 82.3067 89.589 86.1076C95.3881 73.9151 103.968 63.514 114.426 55.8774C117.155 53.8846 120.725 53.8846 123.454 55.8774C133.77 63.4103 142.258 73.6332 148.053 85.6119C155.447 82.1059 163.356 79.9709 171.419 79.3112C174.706 79.0423 177.8 80.9686 179.227 84.1721C189.059 106.238 188.944 132.989 176.736 155.789C164.527 178.589 143.1 192.072 120.462 193.924C119.729 193.985 119.006 193.935 118.309 193.787ZM134.895 179.965C148.465 174.989 160.467 164.891 168.189 150.469C178.468 131.272 178.803 108.824 170.879 90.0412C164.373 90.7218 158.004 92.5161 152.03 95.3491C154.944 103.993 156.534 113.323 156.534 123.055C156.534 145.231 148.276 165.328 134.895 179.965ZM139.316 90.5598C134.475 80.5383 127.461 71.9267 118.94 65.4475C110.236 72.0655 103.105 80.9082 98.2554 91.2056C105.974 96.5278 112.831 103.529 118.309 112.059C124.012 103.179 131.209 95.9566 139.316 90.5598ZM123.9 122.38C128.859 113.26 135.537 105.89 143.239 100.477C145.462 107.565 146.666 115.158 146.666 123.055C146.666 141.284 140.248 157.899 129.697 170.414C132.552 154.604 130.825 137.766 123.9 122.38ZM112.718 122.38C107.983 113.669 101.678 106.557 94.4119 101.219C92.3354 108.094 91.2136 115.433 91.2136 123.055C91.2136 140.349 96.99 156.191 106.592 168.456C104.218 153.22 106.078 137.133 112.718 122.38ZM118.309 175.614C122.014 162.911 122.166 149.055 118.309 135.918C114.452 149.055 114.605 162.911 118.309 175.614ZM68.429 150.469C76.502 165.546 89.2528 175.898 103.582 180.612C89.8494 165.923 81.3453 145.559 81.3453 123.055C81.3453 113.522 82.8712 104.373 85.6739 95.8771C79.3875 92.7383 72.6411 90.7631 65.739 90.0412C57.8154 108.824 58.1501 131.272 68.429 150.469Z" fill="#101012"/>
</svg>
