<svg width="232" height="232" viewBox="0 0 232 232" fill="none" xmlns="http://www.w3.org/2000/svg">
<g clip-path="url(#clip0_1622_158)">
<path d="M118.96 0L138.28 2.07L137.81 6.5L125.67 5.2L125.41 7.64L136.69 8.85L136.22 13.28L124.94 12.07L124.68 14.51L136.82 15.81L136.35 20.24L117.03 18.17L118.98 0H118.96Z" fill="#FBE200"/>
<path d="M144.76 3.44922L152.5 6.28922L155.88 18.3292L155.95 18.3592L159.44 8.83922L165.93 11.2192L159.64 28.3792L152.21 25.6592L148.52 13.3992L148.47 13.3792L144.95 22.9892L138.46 20.6092L144.75 3.44922H144.76Z" fill="#FBE200"/>
<path d="M177.07 17.9084L184.38 22.9084L180.48 42.3884L174.14 38.0484L174.69 35.8784L168.48 31.6284L166.66 32.9284L160.32 28.5884L177.07 17.8984V17.9084ZM177.62 24.9884L177.58 24.9584L172.31 28.8584L175.9 31.3184L177.62 24.9884Z" fill="#FBE200"/>
<path d="M194.59 30.8498L205.5 43.1398C206.76 44.5598 207.38 45.8398 207.37 46.9998C207.36 48.1498 206.79 49.2198 205.68 50.2098C205.07 50.7498 204.4 51.0998 203.68 51.2498C202.96 51.3998 202.26 51.2998 201.58 50.9398L201.54 50.9698C201.81 51.5098 201.96 52.0298 201.98 52.5498C202 53.0698 201.95 53.5498 201.81 53.9998C201.67 54.4498 201.48 54.8498 201.24 55.2098C200.99 55.5598 200.74 55.8498 200.49 56.0798C199.81 56.6798 199.12 57.1298 198.42 57.4398C197.72 57.7498 196.99 57.8598 196.22 57.7798C195.46 57.6998 194.67 57.4198 193.85 56.9198C193.03 56.4198 192.18 55.6798 191.3 54.6798L180.91 42.9798L194.58 30.8398L194.59 30.8498ZM188.95 45.3098L193.05 49.9198C193.53 50.4598 193.95 50.7298 194.33 50.7498C194.71 50.7698 195.05 50.6398 195.36 50.3698C195.65 50.1098 195.82 49.7898 195.85 49.3998C195.88 49.0198 195.66 48.5598 195.19 48.0198L191.09 43.4098L188.95 45.3098V45.3098ZM194.2 40.6498L197.82 44.7298C198.31 45.2798 198.71 45.5698 199.03 45.5898C199.35 45.6098 199.64 45.5098 199.91 45.2698C200.16 45.0398 200.3 44.7698 200.3 44.4598C200.3 44.1498 200.07 43.7098 199.58 43.1698L195.96 39.0898L194.2 40.6498Z" fill="#FBE200"/>
<path d="M213.37 53.7891L216.78 60.1491L205 66.4691L210.29 76.3291L205.96 78.6491L197.26 62.4291L213.37 53.7891V53.7891Z" fill="#FBE200"/>
<path d="M224.16 75.4084L229.45 94.1084L225.16 95.3184L221.83 83.5684L219.47 84.2384L222.56 95.1484L218.27 96.3584L215.18 85.4484L212.81 86.1184L216.14 97.8684L211.85 99.0784L206.56 80.3784L224.15 75.3984L224.16 75.4084Z" fill="#FBE200"/>
<path d="M217.91 117.611L231.46 110.211L231.02 118.441L223.68 121.531L230.65 125.391L230.21 133.621L217.53 124.821L212.39 124.541L212.78 117.331L217.92 117.611H217.91Z" fill="#FBE200"/>
<path d="M220.87 134.879C222.37 135.339 223.59 135.929 224.52 136.649C225.45 137.369 226.16 138.159 226.66 139.019C227.16 139.879 227.47 140.789 227.61 141.749C227.74 142.709 227.77 143.659 227.68 144.609C227.59 145.559 227.44 146.459 227.22 147.329C227 148.199 226.78 148.989 226.56 149.689C226.34 150.389 226.09 151.159 225.78 152.009C225.48 152.849 225.09 153.689 224.63 154.519C224.17 155.349 223.62 156.129 222.97 156.849C222.32 157.569 221.55 158.149 220.66 158.579C219.77 159.009 218.74 159.269 217.56 159.339C216.38 159.419 215.05 159.229 213.55 158.769C212.05 158.309 210.83 157.719 209.9 156.999C208.97 156.279 208.26 155.489 207.76 154.629C207.26 153.769 206.95 152.859 206.81 151.899C206.68 150.939 206.65 149.989 206.74 149.039C206.83 148.089 206.98 147.189 207.2 146.319C207.42 145.449 207.64 144.659 207.86 143.959C208.08 143.259 208.33 142.489 208.64 141.639C208.94 140.799 209.33 139.959 209.78 139.129C210.24 138.299 210.8 137.519 211.44 136.799C212.09 136.079 212.86 135.499 213.75 135.069C214.64 134.639 215.67 134.379 216.84 134.299C218.01 134.219 219.35 134.409 220.87 134.879ZM218.62 142.219C217.74 141.949 216.95 141.819 216.26 141.839C215.57 141.859 214.96 142.009 214.44 142.289C213.92 142.569 213.48 142.959 213.13 143.469C212.78 143.979 212.49 144.589 212.27 145.309C212.06 146.009 211.95 146.679 211.95 147.299C211.95 147.929 212.1 148.499 212.37 149.019C212.64 149.539 213.07 150.009 213.63 150.409C214.19 150.809 214.92 151.149 215.8 151.419C216.68 151.689 217.47 151.809 218.16 151.799C218.85 151.789 219.46 151.629 219.98 151.349C220.5 151.069 220.94 150.679 221.3 150.159C221.65 149.639 221.94 149.039 222.15 148.329C222.37 147.609 222.48 146.939 222.47 146.329C222.47 145.709 222.32 145.139 222.04 144.619C221.76 144.099 221.34 143.629 220.78 143.229C220.22 142.819 219.49 142.489 218.61 142.219H218.62Z" fill="#FBE200"/>
<path d="M219.33 167.429L215.51 173.549L206.13 167.689C205.13 167.069 204.27 166.909 203.55 167.229C202.83 167.539 202.16 168.199 201.53 169.199C200.9 170.199 200.61 171.089 200.64 171.879C200.67 172.669 201.19 173.369 202.19 173.989L211.57 179.849L207.75 185.969L198.13 179.959C196.9 179.189 195.99 178.359 195.4 177.469C194.81 176.579 194.51 175.589 194.5 174.519C194.49 173.439 194.74 172.259 195.25 170.969C195.76 169.679 196.51 168.249 197.5 166.669C198.49 165.089 199.45 163.789 200.38 162.759C201.31 161.729 202.26 160.989 203.24 160.529C204.22 160.069 205.23 159.909 206.29 160.049C207.35 160.189 208.5 160.639 209.73 161.409L219.35 167.419L219.33 167.429Z" fill="#FBE200"/>
<path d="M203.01 191.729L192.02 202.239C191.27 202.959 190.61 203.519 190.06 203.909C189.5 204.299 188.96 204.579 188.44 204.749C188.08 204.859 187.68 204.909 187.26 204.909C186.84 204.909 186.41 204.839 185.98 204.719C185.55 204.599 185.13 204.419 184.72 204.189C184.31 203.949 183.94 203.649 183.58 203.279C183.27 202.959 183.01 202.609 182.78 202.239C182.55 201.869 182.39 201.469 182.29 201.039C182.19 200.619 182.17 200.169 182.23 199.719C182.29 199.259 182.46 198.799 182.73 198.319L182.69 198.279C182.19 198.549 181.64 198.649 181.05 198.589C180.46 198.529 179.86 198.229 179.24 197.679L176.26 195.009C175.95 194.739 175.61 194.519 175.24 194.369C174.87 194.219 174.5 194.119 174.12 194.069L179.82 188.619C179.96 188.669 180.11 188.749 180.26 188.859C180.41 188.969 180.58 189.109 180.78 189.279C180.98 189.449 181.22 189.669 181.49 189.929C181.76 190.189 182.09 190.499 182.48 190.859C182.98 191.329 183.46 191.609 183.92 191.699C184.38 191.789 184.85 191.599 185.34 191.139L189.04 187.599L185.15 183.529L190.37 178.539L203.01 191.749V191.729ZM192.24 190.909L188.54 194.449C188.02 194.949 187.75 195.399 187.72 195.819C187.69 196.239 187.88 196.649 188.28 197.069C188.76 197.579 189.23 197.769 189.67 197.649C190.11 197.529 190.55 197.269 190.98 196.859L194.6 193.389L192.23 190.909H192.24Z" fill="#FBE200"/>
<path d="M170.49 217.801L157.52 223.221C156.09 223.821 154.76 224.191 153.55 224.351C152.34 224.501 151.23 224.401 150.22 224.051C149.21 223.691 148.3 223.061 147.47 222.151C146.64 221.241 145.91 220.001 145.25 218.441C144.01 215.481 143.85 213.031 144.76 211.091C145.67 209.151 147.52 207.591 150.33 206.421L163.44 200.941L170.49 217.811V217.801ZM158.56 207.971L154.73 209.571C153.2 210.211 152.26 211.031 151.9 212.031C151.54 213.031 151.64 214.201 152.2 215.541C152.76 216.881 153.52 217.771 154.49 218.221C155.45 218.671 156.7 218.571 158.23 217.931L162.06 216.331L158.57 207.971H158.56Z" fill="#FBE200"/>
<path d="M142.71 227.888L135.64 229.358L131.93 211.458L139 209.988L142.71 227.888Z" fill="#FBE200"/>
<path d="M115.58 223.182L105.32 223.352L105.15 212.932L108.25 212.882L109.1 214.532C109.55 214.112 110.05 213.752 110.59 213.442C111.13 213.132 111.73 212.882 112.4 212.692C113.06 212.502 113.81 212.362 114.63 212.262C115.46 212.162 116.39 212.102 117.43 212.092C118.27 212.082 119.15 212.112 120.07 212.182C120.99 212.252 121.9 212.412 122.79 212.652C123.68 212.892 124.53 213.232 125.34 213.662C126.15 214.092 126.86 214.662 127.47 215.372C128.08 216.082 128.57 216.942 128.95 217.962C129.33 218.982 129.52 220.192 129.55 221.612C129.57 222.942 129.42 224.112 129.11 225.122C128.79 226.132 128.35 227.012 127.78 227.752C127.21 228.492 126.55 229.112 125.79 229.602C125.03 230.092 124.21 230.482 123.33 230.782C122.45 231.082 121.53 231.292 120.59 231.432C119.65 231.562 118.71 231.642 117.79 231.652C115.78 231.682 114.02 231.572 112.52 231.312C111.02 231.052 109.76 230.652 108.74 230.102C107.72 229.552 106.92 228.852 106.35 227.992C105.78 227.132 105.42 226.112 105.26 224.942L113.4 224.812C113.51 225.292 113.69 225.672 113.94 225.972C114.19 226.262 114.49 226.492 114.83 226.662C115.17 226.832 115.55 226.932 115.96 226.992C116.37 227.042 116.81 227.072 117.29 227.062C118.04 227.052 118.71 226.942 119.29 226.752C119.88 226.552 120.37 226.242 120.79 225.822C121.2 225.392 121.51 224.852 121.72 224.192C121.93 223.532 122.03 222.742 122.01 221.822C121.95 218.372 120.13 216.682 116.55 216.742C115.37 216.762 114.47 216.982 113.85 217.402C113.23 217.822 112.79 218.392 112.55 219.112L115.52 219.062L115.59 223.212L115.58 223.182Z" fill="#FBE200"/>
<path d="M98.6803 229.848L91.5703 228.568L94.8003 210.578L101.91 211.858L98.6803 229.848Z" fill="#FBE200"/>
<path d="M82.0404 221.29L88.3404 223.52L86.8004 227.86L67.4004 220.98L68.9404 216.64L75.2404 218.87L79.8104 205.98L86.6104 208.39L82.0404 221.27V221.29Z" fill="#FBE200"/>
<path d="M58.9804 216.28L51.4404 211.64L54.4004 192L60.9404 196.03L60.4904 198.22L66.9004 202.17L68.6504 200.79L75.1904 204.82L58.9804 216.3V216.28ZM58.0904 209.24L58.1304 209.27L63.2104 205.12L59.5004 202.84L58.0804 209.24H58.0904Z" fill="#FBE200"/>
<path d="M41.2796 204.258L36.0996 199.228L45.4096 189.648L37.3896 181.848L40.8196 178.328L54.0196 191.158L41.2796 204.268V204.258Z" fill="#FBE200"/>
<path d="M16.9802 176.36L10.3302 163.03C9.76021 161.89 9.40021 160.85 9.26021 159.93C9.12021 159.01 9.16021 158.18 9.40021 157.43C9.64021 156.68 10.0502 156.02 10.6402 155.45C11.2302 154.88 11.9902 154.36 12.9002 153.91C13.6802 153.52 14.4602 153.27 15.2502 153.15C16.0402 153.03 16.8102 153.09 17.5602 153.33C18.3102 153.57 19.0202 154.01 19.7002 154.67C20.3802 155.32 21.0002 156.22 21.5802 157.37L25.0302 164.29L30.1102 161.75L33.3302 168.21L16.9802 176.37V176.36ZM21.0402 166.27L18.9602 162.1C18.5502 161.27 18.1302 160.76 17.6902 160.56C17.2602 160.36 16.7402 160.4 16.1402 160.7C15.5002 161.02 15.1302 161.41 15.0402 161.88C14.9502 162.35 15.1102 162.99 15.5202 163.81L17.6002 167.98L21.0402 166.27V166.27Z" fill="#FBE200"/>
<path d="M14.1501 149.501C12.6101 149.821 11.2601 149.881 10.1001 149.701C8.94012 149.511 7.93012 149.161 7.09012 148.651C6.24012 148.141 5.53012 147.491 4.95012 146.711C4.37012 145.931 3.89012 145.111 3.51012 144.241C3.13012 143.371 2.83012 142.501 2.60012 141.631C2.38012 140.761 2.19012 139.971 2.04012 139.251C1.89012 138.531 1.75012 137.731 1.61012 136.841C1.47012 135.951 1.40012 135.041 1.41012 134.091C1.41012 133.141 1.53012 132.191 1.75012 131.251C1.97012 130.311 2.37012 129.431 2.95012 128.621C3.52012 127.811 4.31012 127.091 5.30012 126.461C6.29012 125.831 7.56012 125.351 9.10012 125.031C10.6401 124.711 11.9901 124.651 13.1501 124.831C14.3101 125.011 15.3201 125.371 16.1601 125.881C17.0101 126.391 17.7201 127.041 18.3001 127.821C18.8801 128.601 19.3601 129.421 19.7401 130.291C20.1201 131.161 20.4201 132.031 20.6501 132.901C20.8801 133.771 21.0601 134.561 21.2101 135.281C21.3601 136.001 21.5001 136.801 21.6401 137.691C21.7801 138.581 21.8501 139.491 21.8401 140.451C21.8401 141.401 21.7201 142.351 21.5001 143.291C21.2801 144.231 20.8801 145.111 20.3001 145.921C19.7301 146.731 18.9501 147.451 17.9601 148.081C16.9801 148.711 15.7101 149.191 14.1501 149.511V149.501ZM12.6001 141.981C13.5001 141.791 14.2501 141.521 14.8501 141.171C15.4501 140.821 15.9101 140.401 16.2401 139.901C16.5701 139.411 16.7601 138.851 16.8201 138.241C16.8801 137.631 16.8401 136.951 16.6901 136.211C16.5401 135.491 16.3201 134.861 16.0101 134.311C15.7101 133.761 15.3101 133.331 14.8101 133.001C14.3201 132.681 13.7201 132.471 13.0401 132.391C12.3501 132.311 11.5601 132.361 10.6501 132.541C9.74012 132.721 9.00012 133.001 8.40012 133.341C7.80012 133.691 7.34012 134.111 7.01012 134.611C6.69012 135.111 6.49012 135.661 6.43012 136.291C6.37012 136.921 6.41012 137.581 6.56012 138.301C6.71012 139.041 6.94012 139.671 7.24012 140.211C7.54012 140.751 7.94012 141.181 8.44012 141.501C8.93012 141.831 9.53012 142.031 10.2101 142.111C10.9001 142.191 11.6901 142.141 12.6001 141.961V141.981Z" fill="#FBE200"/>
<path d="M4.83 115.491L4.61 122.171L0 122.011L0.69 101.441L5.29 101.591L5.07 108.271L18.73 108.731L18.49 115.941L4.83 115.481V115.491Z" fill="#FBE200"/>
<path d="M1.58008 96.0409L6.37008 77.2109L10.6901 78.3109L7.68008 90.1409L10.0601 90.7509L12.8501 79.7609L17.1701 80.8609L14.3801 91.8509L16.7601 92.4609L19.7701 80.6309L24.0901 81.7309L19.3001 100.561L1.58008 96.0409Z" fill="#FBE200"/>
<path d="M8.66016 70.9794L12.5702 63.7194L24.9702 62.0794L25.0102 62.0094L16.0802 57.1994L19.3602 51.1094L35.4502 59.7694L31.7002 66.7394L19.0402 68.6494L19.0202 68.6894L28.0402 73.5394L24.7602 79.6294L8.67016 70.9594L8.66016 70.9794Z" fill="#FBE200"/>
<path d="M30.6703 44.5394L26.2103 49.5194L22.7803 46.4494L36.5003 31.1094L39.9303 34.1794L35.4703 39.1594L45.6603 48.2794L40.8503 53.6594L30.6603 44.5394H30.6703Z" fill="#FBE200"/>
<path d="M40.3203 28.2197L45.9303 23.6797L57.4303 37.8897L51.8203 42.4297L40.3203 28.2197Z" fill="#FBE200"/>
<path d="M55.8096 16.9211L63.5496 12.6211L79.2296 24.8211L72.5196 28.5511L70.8296 27.0911L64.2496 30.7511L64.5996 32.9611L57.8896 36.6911L55.8196 16.9311L55.8096 16.9211ZM62.3896 19.5911L62.3496 19.6111L63.4796 26.0711L67.2796 23.9611L62.3896 19.5911Z" fill="#FBE200"/>
<path d="M74.96 7.36031L81.89 5.32031L85.66 18.1403L96.39 14.9803L97.78 19.7003L80.12 24.8903L74.96 7.35031V7.36031Z" fill="#FBE200"/>
<path d="M115.64 126.619C121.688 126.619 126.59 121.716 126.59 115.669C126.59 109.621 121.688 104.719 115.64 104.719C109.593 104.719 104.69 109.621 104.69 115.669C104.69 121.716 109.593 126.619 115.64 126.619Z" fill="#FBE200"/>
</g>
<defs>
<clipPath id="clip0_1622_158">
<rect width="231.46" height="231.66" fill="white"/>
</clipPath>
</defs>
</svg>
